<svg xmlns="http://www.w3.org/2000/svg" version="1.1" xmlns:xlink="http://www.w3.org/1999/xlink" xmlns:svgjs="http://svgjs.dev/svgjs" width="2000" height="1500" viewBox="0 0 2000 1500"><rect width="2000" height="1500" fill="#ffffff"></rect><g transform="matrix(0.75,0,0,0.75,249.09195368109954,621.8575506989678)"><svg viewBox="0 0 396 67" data-background-color="#ffffff" preserveAspectRatio="xMidYMid meet" height="338" width="2000" xmlns="http://www.w3.org/2000/svg" xmlns:xlink="http://www.w3.org/1999/xlink"><g id="tight-bounds" transform="matrix(1,0,0,1,0.24027577181027482,0.36802407561799555)"><svg viewBox="0 0 395.52 66.26395184876398" height="66.26395184876398" width="395.52"><g><svg viewBox="0 0 536.647895403025 89.90799529916711" height="66.26395184876398" width="395.52"><g><rect width="8.06765751356223" height="89.90799529916711" x="416.6395222868121" y="0" fill="#fe5e02" opacity="1" stroke-width="0" stroke="transparent" fill-opacity="1" class="rect-yte-0" data-fill-palette-color="primary" rx="1%" id="yte-0" data-palette-color="#fe5e02"></rect></g><g transform="matrix(1,0,0,1,0,0.22365172959991497)"><svg viewBox="0 0 395.52 89.46069183996728" height="89.46069183996728" width="395.52"><g id="textblocktransform"><svg viewBox="0 0 395.52 89.46069183996728" height="89.46069183996728" width="395.52" id="textblock"><g><svg viewBox="0 0 395.52 89.46069183996728" height="89.46069183996728" width="395.52"><g transform="matrix(1,0,0,1,0,0)"><svg width="395.52" viewBox="0.82222211112 -39.2 183.45777788888 41.5" height="89.46069183996728" data-palette-color="#fe5e02"><g class="wordmark-text-0" data-fill-palette-color="primary" id="text-0"><path d="M11.6-36.15L11.6-36.15Q11.4-36.6 11.5-36.6L11.5-36.6Q11.65-36.6 11.85-36.38 12.05-36.15 12.1-36.1L12.1-36.1Q12.6-35.35 13.2-34.48 13.8-33.6 14.35-32.4 14.9-31.2 15.35-29.63 15.8-28.05 16.05-25.9L16.05-25.9Q16.35-23.45 16.18-21.08 16-18.7 15.6-16.3L15.6-16.3Q15.55-16.2 15.5-15.8 15.45-15.4 15.3-15.4L15.3-15.4Q15.2-15.4 15.1-15.78 15-16.15 15-16.3L15-16.3Q14.9-16.85 14.8-17.6 14.7-18.35 14.63-19.18 14.55-20 14.53-20.78 14.5-21.55 14.5-22.15L14.5-22.15Q14.5-22.35 14.48-23.03 14.45-23.7 14.4-24.6 14.35-25.5 14.23-26.58 14.1-27.65 13.95-28.7L13.95-28.7Q14.05-27.15 13.95-25.6 13.85-24.05 13.7-22.48 13.55-20.9 13.45-19.33 13.35-17.75 13.45-16.15L13.45-16.15Q13.6-13.05 14.7-9.85 15.8-6.65 18.2-4.4L18.2-4.4Q18.5-4.1 18.45-4.1L18.45-4.1Q18.35-4.05 18.1-4.2L18.1-4.2Q16.35-5.2 15.2-6.6 14.05-8 13.33-9.65 12.6-11.3 12.25-13.08 11.9-14.85 11.85-16.65L11.85-16.65Q11.85-16.8 11.83-16.93 11.8-17.05 11.8-17.2L11.8-17.2Q10.8-14.35 9.58-11.7 8.35-9.05 7.18-6.6 6-4.15 4.98-1.98 3.95 0.2 3.35 2.05L3.35 2.05Q3.25 2.3 3.2 2.3L3.2 2.3Q3.1 2.3 3.1 2.15 3.1 2 3.1 1.95L3.1 1.95Q3.15-0.4 4.05-2.98 4.95-5.55 6.18-8.33 7.4-11.1 8.75-14.03 10.1-16.95 11.1-20L11.1-20Q11.7-21.95 12.13-24.05 12.55-26.15 12.65-28.25 12.75-30.35 12.5-32.38 12.25-34.4 11.6-36.15ZM17.8-7.35L17.8-7.35Q18.35-6.2 19.25-5.2L19.25-5.2Q19.6-7.3 20.6-9.38 21.6-11.45 22.88-13.55 24.15-15.65 25.55-17.75 26.95-19.85 28.15-22L28.15-22Q29.05-23.55 29.68-25.35 30.3-27.15 30.58-29.03 30.85-30.9 30.73-32.75 30.6-34.6 29.95-36.25L29.95-36.25Q29.8-36.5 29.9-36.6L29.9-36.6Q30-36.7 30.23-36.48 30.45-36.25 30.5-36.15L30.5-36.15Q31.1-35.3 31.48-33.93 31.85-32.55 32.02-30.88 32.2-29.2 32.2-27.35 32.2-25.5 32.05-23.65L32.05-23.65Q31.85-21.2 31.33-18.3 30.8-15.4 30.05-13L30.05-13Q30-12.9 29.88-12.55 29.75-12.2 29.6-12.2L29.6-12.2Q29.5-12.25 29.45-12.63 29.4-13 29.4-13.1L29.4-13.1Q29.4-13.65 29.43-14.43 29.45-15.2 29.5-16.03 29.55-16.85 29.63-17.63 29.7-18.4 29.8-18.95L29.8-18.95Q29.85-19.25 29.98-20.33 30.1-21.4 30.2-22.75L30.2-22.75Q29.6-21.35 29.25-20.25 28.9-19.15 28.65-18.1 28.4-17.05 28.23-15.9 28.05-14.75 27.9-13.2L27.9-13.2Q27.75-11.65 27.78-9.95 27.8-8.25 28.13-6.6 28.45-4.95 29.08-3.38 29.7-1.8 30.7-0.5L30.7-0.5Q30.9-0.2 30.8-0.15L30.8-0.15Q30.7-0.1 30.55-0.25L30.55-0.25Q28.95-1.55 28.03-3.18 27.1-4.8 26.65-6.6 26.2-8.4 26.18-10.28 26.15-12.15 26.35-13.95L26.35-13.95Q26.45-14.6 26.53-15.25 26.6-15.9 26.7-16.6L26.7-16.6Q25.55-14.75 24.4-13 23.25-11.25 22.25-9.53 21.25-7.8 20.48-6.13 19.7-4.45 19.3-2.8L19.3-2.8Q19.2-2.55 19.2-2.55L19.2-2.55Q19.1-2.55 19.1-2.75 19.1-2.95 19.1-3L19.1-3Q19.1-3.4 19.1-3.8 19.1-4.2 19.2-4.6L19.2-4.6Q18.8-4.8 18.5-4.98 18.2-5.15 17.93-5.4 17.65-5.65 17.38-6 17.1-6.35 16.8-6.9L16.8-6.9Q16.55-7.4 16.3-8.1 16.05-8.8 15.88-9.47 15.7-10.15 15.68-10.63 15.65-11.1 15.8-11.1L15.8-11.1Q15.9-11.1 16.03-10.93 16.15-10.75 16.3-10.5 16.45-10.25 16.55-10 16.65-9.75 16.7-9.65L16.7-9.65Q16.95-9.05 17.23-8.47 17.5-7.9 17.8-7.35ZM18.85-17.1L18.85-16.6Q19.95-18.75 21.13-20.78 22.3-22.8 23-24L23-24Q24.2-26.15 25.5-28.23 26.8-30.3 27.75-31.9L27.75-31.9Q27.85-32.15 27.98-32.35 28.1-32.55 28.2-32.45L28.2-32.45Q28.3-32.45 28.25-32.2 28.2-31.95 28.15-31.7L28.15-31.7Q27.45-28.1 25.63-24.9 23.8-21.7 21.8-18.45L21.8-18.45Q21.1-17.35 20.58-16.63 20.05-15.9 19.68-15.23 19.3-14.55 19.05-13.75 18.8-12.95 18.7-11.7L18.7-11.7Q18.9-12.25 19.15-12.75 19.4-13.25 19.65-13.7L19.65-13.7Q21.05-16.1 22.8-18.5 24.55-20.9 26.25-23L26.25-23Q26.35-23.1 26.63-23.43 26.9-23.75 27-23.7L27-23.7Q27.1-23.65 26.98-23.25 26.85-22.85 26.8-22.65L26.8-22.65Q26.55-22.1 26.18-21.3 25.8-20.5 25.38-19.68 24.95-18.85 24.5-18.07 24.05-17.3 23.7-16.8L23.7-16.8Q23.5-16.5 22.85-15.6 22.2-14.7 21.45-13.35 20.7-12 19.98-10.3 19.25-8.6 18.9-6.7L18.9-6.7Q18.75-7 18.53-7.45 18.3-7.9 18-8.9L18-8.9Q17.1-12.05 17.03-15.28 16.95-18.5 17-21.9L17-21.9Q17.05-24.05 17.03-26.2 17-28.35 16.3-30.75L16.3-30.75Q16.25-30.95 16.3-31.05L16.3-31.05Q16.4-31.05 16.6-30.75L16.6-30.75Q17.5-29.8 17.95-27.98 18.4-26.15 18.6-24.13 18.8-22.1 18.82-20.18 18.85-18.25 18.85-17.1L18.85-17.1ZM5.7-20.95L5.7-20.95Q6.55-23.55 7.63-26.2 8.7-28.85 9.5-30.95L9.5-30.95Q9.6-31.2 9.73-31.45 9.85-31.7 9.95-31.65L9.95-31.65Q10.05-31.65 10.03-31.33 10-31 10-30.75L10-30.75Q9.55-26.65 8.2-22.6 6.85-18.55 5.2-14.6L5.2-14.6Q4.2-12.1 3.05-9.58 1.9-7.05 1.15-4.1L1.15-4.1Q1.05-3.85 1.07-3.8 1.1-3.75 1.05-3.75L1.05-3.75Q0.9-3.85 0.9-4.2L0.9-4.2Q0.65-5.7 1.2-7.98 1.75-10.25 2.6-12.68 3.45-15.1 4.35-17.32 5.25-19.55 5.7-20.95ZM3.55-9.05L3.55-9.05Q4.8-11.9 6.25-14.93 7.7-17.95 9.05-20.7L9.05-20.7Q9.1-20.85 9.33-21.25 9.55-21.65 9.75-21.6L9.75-21.6Q9.85-21.6 9.8-21.15 9.75-20.7 9.65-20.5L9.65-20.5Q9.5-19.8 9.25-18.82 9-17.85 8.68-16.82 8.35-15.8 8-14.83 7.65-13.85 7.35-13.2L7.35-13.2Q7.2-12.9 6.83-11.93 6.45-10.95 5.93-9.6 5.4-8.25 4.83-6.73 4.25-5.2 3.75-3.83 3.25-2.45 2.88-1.38 2.5-0.3 2.45 0.15L2.45 0.15Q2.35 0.65 2.25 0.65L2.25 0.65Q2.15 0.65 2.13 0.45 2.1 0.25 2.05 0.15L2.05 0.15Q1.8-0.45 1.83-1.6 1.85-2.75 2.1-4.05 2.35-5.35 2.73-6.7 3.1-8.05 3.55-9.05ZM33.35-13.35L33.35-13.35Q33.1-11.1 32.58-8.85 32.05-6.6 31.65-4.85L31.65-4.85Q31.45-4.2 31.35-4.25L31.35-4.25Q31.25-4.25 31.23-4.48 31.2-4.7 31.15-4.95L31.15-4.95Q30.75-8.3 31.25-11.65 31.75-15 32.35-18.5L32.35-18.5Q32.75-20.6 33-22.83 33.25-25.05 33-27.6L33-27.6Q33-27.8 33.1-27.9L33.1-27.9Q33.2-27.9 33.23-27.78 33.25-27.65 33.35-27.6L33.35-27.6Q34.1-26.5 34.23-24.58 34.35-22.65 34.2-20.55 34.05-18.45 33.77-16.5 33.5-14.55 33.35-13.35ZM10.7-32.45L10.7-32.45Q10.6-33.5 10.43-34.4 10.25-35.3 10-36.25L10-36.25Q9.95-36.35 9.95-36.5 9.95-36.65 10-36.65L10-36.65Q10.15-36.65 10.3-36.5L10.3-36.5 10.5-36.3Q11.05-35.55 11.4-34.83 11.75-34.1 11.85-32.45L11.85-32.45Q11.9-31.8 11.85-30.85 11.8-29.9 11.68-29.05 11.55-28.2 11.38-27.6 11.2-27 11.05-27.05L11.05-27.05Q10.95-27.05 10.9-27.33 10.85-27.6 10.83-27.95 10.8-28.3 10.8-28.68 10.8-29.05 10.8-29.2L10.8-29.2Q10.8-30.05 10.8-30.83 10.8-31.6 10.7-32.45ZM29-33.1L29-33.1Q28.95-34 28.83-34.8 28.7-35.6 28.45-36.45L28.45-36.45Q28.4-36.55 28.38-36.7 28.35-36.85 28.45-36.8L28.45-36.8Q28.55-36.7 28.63-36.65 28.7-36.6 28.8-36.55L28.8-36.55 28.9-36.45Q29.45-35.75 29.78-35.1 30.1-34.45 30.15-32.95L30.15-32.95Q30.15-32.4 30.03-31.55 29.9-30.7 29.73-29.93 29.55-29.15 29.33-28.63 29.1-28.1 28.9-28.2L28.9-28.2Q28.8-28.25 28.8-28.53 28.8-28.8 28.8-29.13 28.8-29.45 28.85-29.75 28.9-30.05 28.9-30.2L28.9-30.2Q29-31 29.03-31.7 29.05-32.4 29-33.1ZM30.75-3.5L30.75-3.5Q31.05-2.65 31.43-1.95 31.8-1.25 32.2-0.55L32.2-0.55Q32.25-0.5 32.3-0.38 32.35-0.25 32.25-0.25L32.25-0.25Q32.1-0.25 32.02-0.3 31.95-0.35 31.85-0.4L31.85-0.4Q31.75-0.45 31.7-0.5L31.7-0.5Q31-1.05 30.55-1.55 30.1-2.05 29.65-3.35L29.65-3.35Q29.5-3.85 29.35-4.6 29.2-5.35 29.15-6.05 29.1-6.75 29.15-7.25 29.2-7.75 29.4-7.75L29.4-7.75Q29.45-7.75 29.55-7.53 29.65-7.3 29.73-7.03 29.8-6.75 29.88-6.48 29.95-6.2 30-6.1L30-6.1Q30.25-5.4 30.4-4.75 30.55-4.1 30.75-3.5ZM50.1-20.4L50.1-20.4Q50.5-19.9 50.72-19.15 50.95-18.4 50.9-17.53 50.85-16.65 50.5-15.7 50.15-14.75 49.4-13.85L49.4-13.85Q47.95-12.15 46.22-11.23 44.5-10.3 43.1-10.3L43.1-10.3Q42.25-10.3 43.1-10.6L43.1-10.6Q43.55-10.75 44.17-11.08 44.8-11.4 45.5-11.88 46.2-12.35 46.92-13 47.65-13.65 48.25-14.5L48.25-14.5Q49.25-15.9 49.42-17.23 49.6-18.55 48.9-19.25L48.9-19.25Q48.3-19.85 47.5-19.93 46.7-20 45.1-19.05L45.1-19.05Q43.65-18.2 42.5-16.95 41.35-15.7 40.35-14.3L40.35-14.3Q39.8-13.6 39.62-13.6 39.45-13.6 39.75-14.5L39.75-14.5Q40.35-16.25 41.42-17.75 42.5-19.25 44-20.3L44-20.3Q45.1-21.05 46.02-21.35 46.95-21.65 47.72-21.6 48.5-21.55 49.1-21.23 49.7-20.9 50.1-20.4ZM52.8-16.9L52.8-16.9Q52.6-15.7 52.17-14.88 51.75-14.05 51.22-13.48 50.7-12.9 50.17-12.55 49.65-12.2 49.25-11.9L49.25-11.9Q49.05-11.75 48.95-11.85 48.85-11.95 49.1-12.2L49.1-12.2Q50-12.95 50.92-14.23 51.85-15.5 51.9-17.05L51.9-17.05Q51.9-19.7 50.6-21.1L50.6-21.1Q49.3-22.5 47.35-22.33 45.4-22.15 43.3-20.8L43.3-20.8Q41.95-19.95 40.92-18.82 39.9-17.7 39.15-16.43 38.4-15.15 37.92-13.8 37.45-12.45 37.25-11.1L37.25-11.1Q37.05-9.8 36.87-8.3 36.7-6.8 36.87-5.35 37.05-3.9 37.8-2.58 38.55-1.25 40.15-0.3L40.15-0.3Q40.4-0.15 40.67-0.1 40.95-0.05 40.95 0L40.95 0Q40.95 0.1 40.7 0.13 40.45 0.15 40.15 0.05L40.15 0.05Q38.9-0.2 38.02-0.98 37.15-1.75 36.6-2.75 36.05-3.75 35.75-4.85 35.45-5.95 35.4-6.85L35.4-6.85Q35.1-10.8 36.5-14.65L36.5-14.65Q36.8-15.45 37.27-16.45 37.75-17.45 38.45-18.48 39.15-19.5 40.1-20.48 41.05-21.45 42.25-22.2L42.25-22.2Q43.4-22.9 44.65-23.25 45.9-23.6 47.15-23.58 48.4-23.55 49.5-23.13 50.6-22.7 51.45-21.85L51.45-21.85Q52.2-21.05 52.62-19.8 53.05-18.55 52.8-16.9ZM48.25-18.7L48.25-18.7Q48.85-18 48.4-16.53 47.95-15.05 46.3-13.55L46.3-13.55Q45.4-12.7 44.55-12.18 43.7-11.65 42.4-11.25L42.4-11.25Q41.85-9.35 41.7-7.5 41.55-5.65 41.8-4.5L41.8-4.5Q41.85-4.05 42.12-3.63 42.4-3.2 42.92-2.98 43.45-2.75 44.3-2.8 45.15-2.85 46.4-3.35L46.4-3.35Q46.75-3.5 46.82-3.43 46.9-3.35 46.5-3.1L46.5-3.1Q45.6-2.4 44.6-2.13 43.6-1.85 42.72-1.95 41.85-2.05 41.22-2.55 40.6-3.05 40.4-3.9L40.4-3.9Q40-5.65 40.05-7.55 40.1-9.45 40.62-11.3 41.15-13.15 42.12-14.78 43.1-16.4 44.55-17.55L44.55-17.55Q47.25-19.7 48.25-18.7ZM47.75-2.75L47.75-2.75Q47.4-2.25 46.87-1.78 46.35-1.3 45.67-0.93 45-0.55 44.27-0.3 43.55-0.05 42.8-0.05L42.8-0.05Q41.5-0.05 40.37-0.63 39.25-1.2 38.65-2.95L38.65-2.95Q38.55-3.15 38.55-3.33 38.55-3.5 38.65-3.5L38.65-3.5Q38.85-3.6 39.05-3.38 39.25-3.15 39.45-2.9L39.45-2.9Q40-2.25 40.87-1.75 41.75-1.25 42.55-1.25L42.55-1.25Q44.05-1.25 45.15-1.7 46.25-2.15 47.25-2.9L47.25-2.9Q47.5-3.05 47.82-3.2 48.15-3.35 47.75-2.75ZM47.05-17.35L47.05-17.35Q46.85-17.75 45.6-16.7L45.6-16.7Q44.45-15.8 43.77-14.63 43.1-13.45 42.6-12.05L42.6-12.05Q43.55-12.5 44.35-13.08 45.15-13.65 45.85-14.2L45.85-14.2Q46.6-14.85 46.95-15.9 47.3-16.95 47.05-17.35ZM67.3-20.4L67.3-20.4Q67.7-19.9 67.92-19.15 68.15-18.4 68.09-17.53 68.05-16.65 67.7-15.7 67.34-14.75 66.59-13.85L66.59-13.85Q65.15-12.15 63.42-11.23 61.7-10.3 60.3-10.3L60.3-10.3Q59.45-10.3 60.3-10.6L60.3-10.6Q60.75-10.75 61.37-11.08 62-11.4 62.7-11.88 63.4-12.35 64.12-13 64.84-13.65 65.45-14.5L65.45-14.5Q66.45-15.9 66.62-17.23 66.8-18.55 66.09-19.25L66.09-19.25Q65.5-19.85 64.7-19.93 63.9-20 62.3-19.05L62.3-19.05Q60.85-18.2 59.7-16.95 58.55-15.7 57.55-14.3L57.55-14.3Q57-13.6 56.82-13.6 56.65-13.6 56.95-14.5L56.95-14.5Q57.55-16.25 58.62-17.75 59.7-19.25 61.2-20.3L61.2-20.3Q62.3-21.05 63.22-21.35 64.15-21.65 64.92-21.6 65.7-21.55 66.3-21.23 66.9-20.9 67.3-20.4ZM70-16.9L70-16.9Q69.8-15.7 69.37-14.88 68.95-14.05 68.42-13.48 67.9-12.9 67.37-12.55 66.84-12.2 66.45-11.9L66.45-11.9Q66.25-11.75 66.15-11.85 66.05-11.95 66.3-12.2L66.3-12.2Q67.2-12.95 68.12-14.23 69.05-15.5 69.09-17.05L69.09-17.05Q69.09-19.7 67.8-21.1L67.8-21.1Q66.5-22.5 64.55-22.33 62.6-22.15 60.5-20.8L60.5-20.8Q59.15-19.95 58.12-18.82 57.1-17.7 56.35-16.43 55.6-15.15 55.12-13.8 54.65-12.45 54.45-11.1L54.45-11.1Q54.25-9.8 54.07-8.3 53.9-6.8 54.07-5.35 54.25-3.9 55-2.58 55.75-1.25 57.35-0.3L57.35-0.3Q57.6-0.15 57.87-0.1 58.15-0.05 58.15 0L58.15 0Q58.15 0.1 57.9 0.13 57.65 0.15 57.35 0.05L57.35 0.05Q56.1-0.2 55.22-0.98 54.35-1.75 53.8-2.75 53.25-3.75 52.95-4.85 52.65-5.95 52.6-6.85L52.6-6.85Q52.3-10.8 53.7-14.65L53.7-14.65Q54-15.45 54.47-16.45 54.95-17.45 55.65-18.48 56.35-19.5 57.3-20.48 58.25-21.45 59.45-22.2L59.45-22.2Q60.6-22.9 61.85-23.25 63.1-23.6 64.34-23.58 65.59-23.55 66.7-23.13 67.8-22.7 68.65-21.85L68.65-21.85Q69.4-21.05 69.82-19.8 70.25-18.55 70-16.9ZM65.45-18.7L65.45-18.7Q66.05-18 65.59-16.53 65.15-15.05 63.5-13.55L63.5-13.55Q62.6-12.7 61.75-12.18 60.9-11.65 59.6-11.25L59.6-11.25Q59.05-9.35 58.9-7.5 58.75-5.65 59-4.5L59-4.5Q59.05-4.05 59.32-3.63 59.6-3.2 60.12-2.98 60.65-2.75 61.5-2.8 62.35-2.85 63.6-3.35L63.6-3.35Q63.95-3.5 64.02-3.43 64.09-3.35 63.7-3.1L63.7-3.1Q62.8-2.4 61.8-2.13 60.8-1.85 59.92-1.95 59.05-2.05 58.42-2.55 57.8-3.05 57.6-3.9L57.6-3.9Q57.2-5.65 57.25-7.55 57.3-9.45 57.82-11.3 58.35-13.15 59.32-14.78 60.3-16.4 61.75-17.55L61.75-17.55Q64.45-19.7 65.45-18.7ZM64.95-2.75L64.95-2.75Q64.59-2.25 64.07-1.78 63.55-1.3 62.87-0.93 62.2-0.55 61.47-0.3 60.75-0.05 60-0.05L60-0.05Q58.7-0.05 57.57-0.63 56.45-1.2 55.85-2.95L55.85-2.95Q55.75-3.15 55.75-3.33 55.75-3.5 55.85-3.5L55.85-3.5Q56.05-3.6 56.25-3.38 56.45-3.15 56.65-2.9L56.65-2.9Q57.2-2.25 58.07-1.75 58.95-1.25 59.75-1.25L59.75-1.25Q61.25-1.25 62.35-1.7 63.45-2.15 64.45-2.9L64.45-2.9Q64.7-3.05 65.02-3.2 65.34-3.35 64.95-2.75ZM64.25-17.35L64.25-17.35Q64.05-17.75 62.8-16.7L62.8-16.7Q61.65-15.8 60.97-14.63 60.3-13.45 59.8-12.05L59.8-12.05Q60.75-12.5 61.55-13.08 62.35-13.65 63.05-14.2L63.05-14.2Q63.8-14.85 64.15-15.9 64.5-16.95 64.25-17.35ZM84.14-22.2L84.14-22.2Q84.19-22.15 84.19-21.98 84.19-21.8 84.14-21.7L84.14-21.7Q83.69-20.25 82.59-19.65 81.49-19.05 80.64-19.05L80.64-19.05Q79.59-19.05 78.49-19.23 77.39-19.4 76.39-20.15L76.39-20.15Q76.29-20.25 76.14-20.35 75.99-20.45 75.99-20.55L75.99-20.55Q75.99-20.7 76.14-20.78 76.29-20.85 76.39-20.9L76.39-20.9Q76.84-21 77.57-21.08 78.29-21.15 78.99-21.05L78.99-21.05Q79.49-20.95 80.19-20.95 80.89-20.95 81.62-21.05 82.34-21.15 82.94-21.38 83.54-21.6 83.84-22.05L83.84-22.05Q83.99-22.25 84.14-22.2ZM84.49-23.75L84.49-23.75 84.34-23.5Q83.49-22.4 82.54-22.08 81.59-21.75 80.54-21.8 79.49-21.85 78.42-22.08 77.34-22.3 76.29-22.35L76.29-22.35Q74.89-22.4 73.49-21.5 72.09-20.6 71.09-18.35L71.09-18.35Q70.94-18.05 70.89-18.23 70.84-18.4 70.89-18.55L70.89-18.55Q71.29-20.05 71.84-21.05 72.39-22.05 73.02-22.68 73.64-23.3 74.34-23.6 75.04-23.9 75.79-24L75.79-24Q76.64-26.85 77.12-29.58 77.59-32.3 77.19-34.75L77.19-34.75Q77.19-34.95 77.19-34.95L77.19-34.95Q77.29-35 77.39-34.9 77.49-34.8 77.49-34.75L77.49-34.75Q78.59-32.35 78.39-29.63 78.19-26.9 77.39-23.9L77.39-23.9Q77.64-23.85 77.79-23.85 77.94-23.85 78.14-23.85L78.14-23.85Q78.39-25.15 78.62-26.63 78.84-28.1 78.97-29.45 79.09-30.8 79.04-31.9 78.99-33 78.69-33.55L78.69-33.55Q78.54-34 78.69-34L78.69-34Q78.79-34 78.84-33.9 78.89-33.8 78.99-33.7L78.99-33.7Q79.69-33 80.09-31.8 80.49-30.6 80.64-29.25 80.79-27.9 80.74-26.58 80.69-25.25 80.44-24.25L80.44-24.25 80.24-23.45Q80.39-23.35 80.54-23.35 80.69-23.35 80.84-23.3L80.84-23.3Q81.14-24.8 81.37-26.3 81.59-27.8 81.54-29.45L81.54-29.45Q81.54-29.8 81.59-29.8L81.59-29.8Q81.69-29.8 81.74-29.65 81.79-29.5 81.84-29.4L81.84-29.4Q82.44-28.3 82.42-26.65 82.39-25 82.14-23.15L82.14-23.15Q83.24-23.15 84.24-23.75L84.24-23.75Q84.49-23.9 84.49-23.75ZM74.14-20.35L74.14-20.35Q74.14-20.1 73.87-19.85 73.59-19.6 73.44-19.5L73.44-19.5Q73.19-19.3 72.87-19.03 72.54-18.75 72.29-18.45L72.29-18.45Q72.04-18.05 71.82-17.75 71.59-17.45 71.44-16.9L71.44-16.9Q71.39-16.8 71.32-16.73 71.24-16.65 71.19-16.7L71.19-16.7Q71.04-16.85 71.19-17.35L71.19-17.35Q71.39-18.1 71.59-18.57 71.79-19.05 72.34-19.6L72.34-19.6Q72.54-19.8 72.84-20 73.14-20.2 73.44-20.35 73.74-20.5 73.94-20.5 74.14-20.5 74.14-20.35ZM78.04-0.25L78.04-0.25Q78.29-0.35 78.24-0.2 78.19-0.05 78.09 0L78.09 0Q77.19 0.3 76.19-0.1 75.19-0.5 74.34-1.35 73.49-2.2 72.89-3.33 72.29-4.45 72.14-5.55L72.14-5.55Q71.89-7.9 72.09-10.1 72.29-12.3 72.84-14.45L72.84-14.45 73.69-17.6Q73.39-17.6 73.09-17.75L73.09-17.75Q72.74-17.85 72.74-18L72.74-18Q72.74-18.1 73.09-18.3L73.09-18.3Q74.49-19 75.92-18.9 77.34-18.8 78.79-18.55L78.79-18.55Q79.69-18.4 80.62-18.32 81.54-18.25 82.64-18.7L82.64-18.7Q82.74-18.8 82.84-18.75L82.84-18.75Q82.94-18.65 82.79-18.4L82.79-18.4Q82.49-17.75 81.94-17.45 81.39-17.15 80.79-17L80.79-17Q80.39-15.7 80.09-14.68 79.79-13.65 79.59-12.95L79.59-12.95Q79.04-10.55 78.32-8.08 77.59-5.6 77.34-3.9L77.34-3.9Q77.24-3.35 77.14-3.3L77.14-3.3Q77.04-3.25 76.94-3.5 76.84-3.75 76.79-3.9L76.79-3.9Q76.59-5.35 76.72-6.93 76.84-8.5 77.19-10.15 77.54-11.8 77.99-13.48 78.44-15.15 78.94-16.85L78.94-16.85Q78.69-16.85 78.44-16.85 78.19-16.85 77.94-16.9L77.94-16.9Q77.54-15.85 77.12-14.83 76.69-13.8 76.29-12.9L76.29-12.9Q76.24-12.8 76.07-12.43 75.89-12.05 75.79-12.05L75.79-12.05Q75.59-12.1 75.64-12.53 75.69-12.95 75.69-13.1L75.69-13.1Q75.79-13.85 76.02-14.85 76.24-15.85 76.44-17L76.44-17Q76.19-17.05 75.89-17.07 75.59-17.1 75.29-17.2L75.29-17.2Q74.99-16.2 74.72-15.25 74.44-14.3 74.19-13.35L74.19-13.35Q73.79-11.6 73.59-9.63 73.39-7.65 73.59-5.55L73.59-5.55Q73.69-4.6 74.12-3.6 74.54-2.6 75.14-1.8 75.74-1 76.52-0.55 77.29-0.1 78.04-0.25ZM78.49-1.35L78.49-1.35Q78.74-1.55 78.79-1.38 78.84-1.2 78.59-1.05L78.59-1.05Q78.39-0.9 78.07-0.83 77.74-0.75 77.34-0.8 76.94-0.85 76.49-1.1 76.04-1.35 75.64-1.9L75.64-1.9Q75.29-2.35 75.07-3.2 74.84-4.05 74.74-4.88 74.64-5.7 74.69-6.3 74.74-6.9 74.94-6.9L74.94-6.9Q75.19-6.9 75.32-6.2 75.44-5.5 75.54-5.05L75.54-5.05Q75.74-4.25 76.09-3.4 76.44-2.55 76.84-2.05L76.84-2.05Q77.34-1.4 77.74-1.28 78.14-1.15 78.49-1.35ZM98.34-12.1L98.34-12.1Q96.84-12.2 95.17-12.58 93.49-12.95 92.04-13.5L92.04-13.5Q91.94-13.55 91.72-13.65 91.49-13.75 91.49-13.9L91.49-13.9Q91.49-14.05 91.72-14.13 91.94-14.2 92.04-14.2L92.04-14.2Q92.74-14.35 93.87-14.33 94.99-14.3 95.69-14.2L95.69-14.2Q96.29-14.1 97.34-14.1 98.39-14.1 99.49-14.2 100.59-14.3 101.59-14.55 102.59-14.8 103.04-15.2L103.04-15.2Q103.24-15.4 103.29-15.35 103.34-15.3 103.32-15.2 103.29-15.1 103.24-14.95 103.19-14.8 103.19-14.8L103.19-14.8Q102.84-14.1 102.24-13.58 101.64-13.05 100.97-12.73 100.29-12.4 99.59-12.23 98.89-12.05 98.34-12.1ZM92.49-10.35L92.49-10.35Q91.14-10.45 89.72-10.7 88.29-10.95 87.14-11.15L87.14-11.15Q86.79-11.15 86.79-11.35L86.79-11.35Q86.79-11.45 86.97-11.53 87.14-11.6 87.29-11.65L87.29-11.65Q89.24-12.2 91.32-12.08 93.39-11.95 95.49-11.7L95.49-11.7Q96.84-11.55 98.22-11.43 99.59-11.3 101.04-11.85L101.04-11.85Q101.19-11.9 101.22-11.8 101.24-11.7 101.14-11.6L101.14-11.6Q100.54-10.75 99.39-10.45 98.24-10.15 96.94-10.1 95.64-10.05 94.42-10.18 93.19-10.3 92.49-10.35ZM84.39-11.7L84.39-11.7Q84.34-11.6 84.27-11.65 84.19-11.7 84.29-11.85L84.29-11.85Q84.94-13.5 85.87-14.58 86.79-15.65 87.84-16.25 88.89-16.85 90.04-17.05 91.19-17.25 92.34-17.2L92.34-17.2Q93.89-17.15 95.42-16.9 96.94-16.65 98.37-16.48 99.79-16.3 101.12-16.32 102.44-16.35 103.59-16.9L103.59-16.9Q103.64-16.9 103.74-16.82 103.84-16.75 103.59-16.5L103.59-16.5Q102.44-15.35 101.07-15.08 99.69-14.8 98.17-14.93 96.64-15.05 95.07-15.35 93.49-15.65 91.94-15.7L91.94-15.7Q90.04-15.8 87.97-14.9 85.89-14 84.39-11.7ZM86.34-11.9L86.34-11.9Q85.94-11.55 85.49-11.15 85.04-10.75 84.64-10.2L84.64-10.2Q84.39-10.05 84.39-10.15L84.39-10.15Q84.39-10.45 84.44-10.5L84.44-10.5Q84.44-10.55 84.49-10.6L84.49-10.6Q84.69-11.4 85.04-11.9 85.39-12.4 86.14-13L86.14-13Q86.44-13.2 86.87-13.43 87.29-13.65 87.69-13.78 88.09-13.9 88.39-13.9 88.69-13.9 88.74-13.7L88.74-13.7Q88.79-13.5 88.39-13.28 87.99-13.05 87.84-12.95L87.84-12.95Q86.99-12.4 86.34-11.9ZM121.84-13.85L121.84-13.85Q121.99-15.2 121.89-16.7 121.79-18.2 121.26-19.48 120.74-20.75 119.66-21.6 118.59-22.45 116.84-22.45L116.84-22.45Q114.49-22.45 112.74-21.18 110.99-19.9 109.74-18.03 108.49-16.15 107.79-14.03 107.09-11.9 106.89-10.15L106.89-10.15Q106.59-7.75 106.81-6 107.04-4.25 107.64-3.13 108.24-2 109.16-1.45 110.09-0.9 111.19-0.9L111.19-0.9Q112.74-0.85 114.46-1.78 116.19-2.7 117.69-4.38 119.19-6.05 120.31-8.47 121.44-10.9 121.84-13.85ZM105.74-10.4L105.74-10.4Q105.94-12.4 106.74-14.8 107.54-17.2 108.96-19.25 110.39-21.3 112.39-22.68 114.39-24.05 117.04-24.05L117.04-24.05Q119.04-24.05 120.34-23.1 121.64-22.15 122.34-20.68 123.04-19.2 123.24-17.48 123.44-15.75 123.24-14.2L123.24-14.2Q122.79-10.6 121.49-7.95 120.19-5.3 118.44-3.53 116.69-1.75 114.74-0.88 112.79 0 110.99 0L110.99 0Q109.64 0 108.56-0.6 107.49-1.2 106.76-2.48 106.04-3.75 105.76-5.73 105.49-7.7 105.74-10.4ZM111.34-3.35L111.34-3.35Q111.09-3.35 110.84-3.53 110.59-3.7 110.44-3.95 110.29-4.2 110.24-4.45 110.19-4.7 110.44-4.8L110.44-4.8Q110.59-4.85 110.84-4.45 111.09-4.05 111.39-4.05L111.39-4.05Q111.89-4.05 112.56-4.7 113.24-5.35 113.86-6.23 114.49-7.1 114.96-7.95 115.44-8.8 115.64-9.2L115.64-9.2Q115.84-9.6 116.04-10.23 116.24-10.85 116.41-11.5 116.59-12.15 116.71-12.78 116.84-13.4 116.89-13.85L116.89-13.85Q117.14-16.1 116.79-17.32 116.44-18.55 115.64-18.55L115.64-18.55Q115.04-18.55 114.39-18.18 113.74-17.8 113.16-17.2 112.59-16.6 112.14-15.88 111.69-15.15 111.49-14.4L111.49-14.4Q111.24-13.55 111.14-13.55L111.14-13.55Q110.99-13.55 110.99-14.4L110.99-14.4Q111.14-15.35 111.64-16.28 112.14-17.2 112.89-17.93 113.64-18.65 114.54-19.13 115.44-19.6 116.39-19.6L116.39-19.6Q117.34-19.6 117.81-18.93 118.29-18.25 118.49-17.28 118.69-16.3 118.66-15.28 118.64-14.25 118.54-13.65L118.54-13.65Q118.34-12.3 117.91-11.03 117.49-9.75 116.89-8.45L116.89-8.45Q116.59-7.85 115.99-6.98 115.39-6.1 114.61-5.3 113.84-4.5 112.96-3.93 112.09-3.35 111.34-3.35ZM112.94-2.4L112.94-2.4Q112.99-2.1 112.46-1.9 111.94-1.7 111.39-1.7L111.39-1.7Q109.84-1.75 109.01-2.7 108.19-3.65 107.86-4.95 107.54-6.25 107.56-7.65 107.59-9.05 107.69-10L107.69-10Q107.89-11.65 108.49-13.7 109.09-15.75 110.19-17.55 111.29-19.35 112.89-20.58 114.49-21.8 116.69-21.8L116.69-21.8Q118.14-21.8 119.01-21.05 119.89-20.3 120.31-19.2 120.74-18.1 120.81-16.82 120.89-15.55 120.74-14.5L120.74-14.5Q120.64-13.35 120.39-12.4 120.14-11.45 119.69-10.3L119.69-10.3Q119.54-9.95 119.29-9.5 119.04-9.05 118.74-9.1L118.74-9.1Q118.59-9.15 118.66-9.5 118.74-9.85 118.86-10.38 118.99-10.9 119.14-11.48 119.29-12.05 119.34-12.55L119.34-12.55Q119.44-13.4 119.46-14.68 119.49-15.95 119.26-17.15 119.04-18.35 118.44-19.2 117.84-20.05 116.64-20.05L116.64-20.05Q114.89-20.05 113.41-18.93 111.94-17.8 110.84-16.18 109.74-14.55 109.06-12.78 108.39-11 108.24-9.65L108.24-9.65Q108.14-8.85 108.19-7.65 108.24-6.45 108.56-5.28 108.89-4.1 109.64-3.25 110.39-2.4 111.69-2.35L111.69-2.35Q112.09-2.3 112.46-2.43 112.84-2.55 112.94-2.4ZM130.64-16.65L130.64-16.65Q130.24-14.95 129.51-13.08 128.79-11.2 127.89-9.6L127.89-9.6Q127.89-9.5 127.76-9.28 127.64-9.05 127.44-9.05L127.44-9.05Q127.34-9.05 127.31-9.35 127.29-9.65 127.34-9.75L127.34-9.75Q127.34-10.55 127.54-11.88 127.74-13.2 128.04-14.05L128.04-14.05Q128.14-14.35 128.36-15.5 128.59-16.65 128.76-18.07 128.94-19.5 128.96-20.83 128.99-22.15 128.64-22.8L128.64-22.8 128.64-23Q128.84-23.15 129.09-22.9L129.09-22.9Q129.74-22.35 130.11-21.55 130.49-20.75 130.66-19.88 130.84-19 130.81-18.15 130.79-17.3 130.64-16.65ZM132.59-16.85L132.59-16.85Q133.14-17.55 133.64-17.85 134.14-18.15 134.64-18.35L134.64-18.35Q134.69-18.35 134.89-18.4 135.09-18.45 135.19-18.3L135.19-18.3Q135.29-18.15 135.14-17.95 134.99-17.75 134.89-17.65L134.89-17.65Q134.54-17.3 134.11-16.88 133.69-16.45 133.34-16.05L133.34-16.05Q132.84-15.5 132.54-14.78 132.24-14.05 132.09-13.3L132.09-13.3Q132.94-14.2 133.71-15 134.49-15.8 135.39-16.5L135.39-16.5Q136.54-17.35 137.39-18.7 138.24-20.05 138.59-22.65L138.59-22.65Q138.69-22.9 138.84-22.95 138.99-23 138.99-22.6L138.99-22.6Q139.14-19.7 138.39-18 137.64-16.3 136.14-15.15L136.14-15.15Q135.34-14.55 134.54-13.85 133.74-13.15 133.01-12.3 132.29-11.45 131.69-10.3 131.09-9.15 130.64-7.65L130.64-7.65Q130.29-6.5 129.94-5.48 129.59-4.45 129.19-3.5L129.19-3.5Q129.09-3.15 128.89-3.15L128.89-3.15Q128.74-3.2 128.74-3.65L128.74-3.65Q128.49-6.05 129.06-8.43 129.64-10.8 130.44-13.35L130.44-13.35Q130.79-14.6 131.26-15.85 131.74-17.1 131.69-18.7L131.69-18.7Q131.69-19.25 132.14-19.85 132.59-20.45 133.24-20.98 133.89-21.5 134.59-21.88 135.29-22.25 135.79-22.4L135.79-22.4Q136.24-22.55 136.24-22.35 136.24-22.15 135.94-21.85L135.94-21.85Q134.89-20.9 133.81-19.6 132.74-18.3 132.59-16.85ZM128.24-0.05L128.24-0.05Q128.19 0 128.16-0.03 128.14-0.05 127.89-0.2L127.89-0.2Q126.39-1.3 125.54-2.6 124.69-3.9 124.31-5.28 123.94-6.65 123.99-8.03 124.04-9.4 124.34-10.7L124.34-10.7Q124.74-12.45 125.31-14.18 125.89-15.9 126.39-17.53 126.89-19.15 127.14-20.73 127.39-22.3 127.14-23.75L127.14-23.75Q127.14-23.85 127.29-23.9L127.29-23.9Q127.34-23.9 127.39-23.83 127.44-23.75 127.49-23.7L127.49-23.7Q128.44-22.1 128.44-20.43 128.44-18.75 127.99-17.03 127.54-15.3 126.86-13.53 126.19-11.75 125.79-9.95L125.79-9.95Q125.29-7.65 125.71-5.05 126.14-2.45 128.04-0.4L128.04-0.4Q128.14-0.25 128.24-0.2 128.34-0.15 128.24-0.05ZM129.74 0L129.74 0Q129.64 0 129.54-0.05L129.54-0.05 129.34-0.15Q128.64-0.6 128.09-1.13 127.54-1.65 127.14-2.65L127.14-2.65Q126.99-3 126.89-3.58 126.79-4.15 126.76-4.65 126.74-5.15 126.81-5.5 126.89-5.85 127.09-5.8L127.09-5.8Q127.24-5.8 127.41-5.4 127.59-5 127.69-4.6L127.69-4.6Q127.79-4.05 127.91-3.55 128.04-3.05 128.24-2.65L128.24-2.65Q128.79-1.4 129.69-0.25L129.69-0.25Q129.79 0 129.74 0ZM137.89-22.45L137.89-22.45Q137.89-21.4 137.29-20.6 136.69-19.8 135.84-19.25L135.84-19.25Q135.69-19.15 135.64-19.28 135.59-19.4 135.59-19.45L135.59-19.45Q135.59-19.75 135.84-20.18 136.09-20.6 136.41-21.08 136.74-21.55 137.04-22.05 137.34-22.55 137.44-22.95L137.44-22.95Q137.59-23.2 137.74-22.95 137.89-22.7 137.89-22.45ZM150.08-9.4L150.08-9.4Q149.43-8.2 148.63-6.83 147.83-5.45 147.08-4.85L147.08-4.85Q146.33-4.25 146.03-4.45 145.73-4.65 145.33-5.35L145.33-5.35Q144.93-5.95 144.93-5.95L144.93-5.95Q144.78-5.9 144.78-5.6 144.78-5.3 144.88-5.05L144.88-5.05Q145.18-4.05 145.61-3.68 146.03-3.3 146.83-3.55L146.83-3.55Q147.73-3.8 148.61-4.65 149.48-5.5 150.13-6.35L150.13-6.35Q151.63-8.4 152.51-10.7 153.38-13 153.48-15.4L153.48-15.4Q153.58-17.6 152.93-18.25 152.28-18.9 151.31-18.68 150.33-18.45 149.21-17.63 148.08-16.8 147.18-16.05L147.18-16.05Q147.48-16.8 148.01-17.5 148.53-18.2 149.21-18.73 149.88-19.25 150.71-19.53 151.53-19.8 152.38-19.7L152.38-19.7Q152.88-19.65 153.28-19.2 153.68-18.75 153.93-18.07 154.18-17.4 154.26-16.5 154.33-15.6 154.23-14.65L154.23-14.65Q153.98-12.75 153.51-10.85 153.03-8.95 152.28-7.35L152.28-7.35Q152.18-7.1 151.96-6.65 151.73-6.2 151.83-6.1L151.83-6.1Q151.93-6 152.31-6.43 152.68-6.85 152.88-7.05L152.88-7.05Q153.78-8.25 154.48-9.78 155.18-11.3 155.56-12.9 155.93-14.5 155.98-16.13 156.03-17.75 155.68-19.2L155.68-19.2Q155.38-20.45 154.46-20.9 153.53-21.35 152.43-21.2 151.33-21.05 150.23-20.5 149.13-19.95 148.43-19.3L148.43-19.3Q148.73-20.05 149.26-20.63 149.78-21.2 150.46-21.63 151.13-22.05 151.91-22.23 152.68-22.4 153.48-22.3L153.48-22.3Q154.88-22.15 155.61-21.2 156.33-20.25 156.61-19.03 156.88-17.8 156.86-16.48 156.83-15.15 156.73-14.25L156.73-14.25Q156.48-12.15 155.78-10.1 155.08-8.05 154.03-6.3L154.03-6.3Q153.18-4.9 151.81-3.55 150.43-2.2 148.83-1.4 147.23-0.6 145.53-0.58 143.83-0.55 142.33-1.8L142.33-1.8Q141.33-2.65 140.91-4.08 140.48-5.5 140.33-6.8L140.33-6.8Q140.08-9.05 140.41-11.33 140.73-13.6 141.38-15.55L141.38-15.55Q142.38-18.6 143.66-21.7 144.93-24.8 145.86-27.8 146.78-30.8 147.03-33.6 147.28-36.4 146.23-38.9L146.23-38.9Q146.18-39 146.16-39.1 146.13-39.2 146.08-39.2L146.08-39.2Q145.93-39.15 145.96-39.1 145.98-39.05 145.98-39L145.98-39Q146.28-36.6 145.78-34 145.28-31.4 144.36-28.6 143.43-25.8 142.28-22.83 141.13-19.85 140.08-16.7L140.08-16.7Q139.38-14.45 138.96-11.9 138.53-9.35 138.93-6.7L138.93-6.7Q139.48-3.1 141.88-1.35 144.28 0.4 147.88 0L147.88 0Q150.48-0.3 152.48-2.1 154.48-3.9 155.83-6.45L155.83-6.45Q156.83-8.4 157.56-10.58 158.28-12.75 158.43-15L158.43-15Q158.53-16.4 158.41-17.9 158.28-19.4 157.76-20.68 157.23-21.95 156.21-22.78 155.18-23.6 153.48-23.7L153.48-23.7Q152.48-23.75 151.26-23.2 150.03-22.65 149.33-21.9L149.33-21.9Q149.78-23.4 150.16-24.98 150.53-26.55 150.73-28 150.93-29.45 150.91-30.73 150.88-32 150.53-32.9L150.53-32.9Q150.43-33.3 150.33-33.3L150.33-33.3Q150.28-33.3 150.28-32.9L150.28-32.9Q150.18-29.7 149.23-26.83 148.28-23.95 147.33-21.35L147.33-21.35Q146.58-19.25 145.76-17.18 144.93-15.1 144.36-13.05 143.78-11 143.53-9.03 143.28-7.05 143.63-5.2L143.63-5.2Q143.68-5 143.81-4.73 143.93-4.45 144.03-4.45L144.03-4.45Q144.13-4.45 144.11-4.7 144.08-4.95 144.13-5.2L144.13-5.2Q144.38-6.95 145.08-9.43 145.78-11.9 146.73-14.4L146.73-14.4Q147.28-14.9 148.06-15.58 148.83-16.25 149.61-16.8 150.38-17.35 151.03-17.63 151.68-17.9 151.98-17.65L151.98-17.65Q152.38-17.25 152.28-16.18 152.18-15.1 151.81-13.8 151.43-12.5 150.93-11.28 150.43-10.05 150.08-9.4ZM148.63-27.35L148.63-27.35Q148.93-28.4 149.11-29.88 149.28-31.35 149.23-32.83 149.18-34.3 148.86-35.63 148.53-36.95 147.88-37.75L147.88-37.75Q147.78-37.85 147.68-37.98 147.58-38.1 147.48-38.1L147.48-38.1Q147.33-38.1 147.53-37.6L147.53-37.6Q147.98-36.6 147.83-34.63 147.68-32.65 147.23-30.4 146.78-28.15 146.18-26 145.58-23.85 145.08-22.6L145.08-22.6Q144.78-21.9 144.46-20.9 144.13-19.9 143.83-18.88 143.53-17.85 143.26-16.88 142.98-15.9 142.83-15.2L142.83-15.2Q142.83-14.95 142.76-14.5 142.68-14.05 142.73-14.05L142.73-14.05Q142.98-13.95 143.16-14.4 143.33-14.85 143.48-14.95L143.48-14.95Q144.88-17.8 146.26-20.98 147.63-24.15 148.63-27.35ZM143.28-3.55L143.28-3.55Q143.73-2.8 144.43-2.33 145.13-1.85 145.83-1.7L145.83-1.7Q146.08-1.65 146.38-1.58 146.68-1.5 146.68-1.3L146.68-1.3Q146.63-1.15 146.23-1.05L146.23-1.05Q146.03-1 145.78-1L145.78-1Q144.93-1.05 144.11-1.3 143.28-1.55 142.38-2.75L142.38-2.75Q141.78-3.55 141.51-4.55 141.23-5.55 141.18-6.45 141.13-7.35 141.26-7.95 141.38-8.55 141.63-8.5L141.63-8.5Q141.68-8.5 141.78-8.22 141.88-7.95 141.96-7.58 142.03-7.2 142.11-6.88 142.18-6.55 142.23-6.4L142.23-6.4Q142.43-5.55 142.58-5 142.73-4.45 143.28-3.55ZM166.88-16.5L166.88-16.5Q167.03-17.15 167.06-18 167.08-18.85 166.93-19.75 166.78-20.65 166.41-21.48 166.03-22.3 165.43-22.9L165.43-22.9Q165.13-23.1 165.08-23.1L165.08-23.1Q164.88-23.1 165.08-22.8L165.08-22.8Q165.38-22.15 165.31-20.78 165.23-19.4 164.98-17.93 164.73-16.45 164.46-15.28 164.18-14.1 164.13-13.85L164.13-13.85Q163.78-12.95 163.51-11.6 163.23-10.25 163.23-9.4L163.23-9.4Q163.18-9.3 163.18-9 163.18-8.7 163.33-8.65L163.33-8.65Q163.38-8.65 163.53-8.9 163.68-9.15 163.78-9.25L163.78-9.25Q164.68-10.85 165.51-12.75 166.33-14.65 166.88-16.5ZM167.08-8.95L167.08-8.95Q167.28-9.85 167.73-11.28 168.18-12.7 168.48-14.23 168.78-15.75 168.78-17.23 168.78-18.7 168.18-19.65L168.18-19.65Q167.98-19.85 167.88-19.85L167.88-19.85Q167.78-19.85 167.83-19.65L167.83-19.65Q167.83-17.75 167.41-16.13 166.98-14.5 166.48-12.95L166.48-12.95Q165.63-10.4 164.93-7.98 164.23-5.55 164.33-3L164.33-3Q164.33-2.85 164.36-2.68 164.38-2.5 164.53-2.5L164.53-2.5Q164.63-2.5 164.68-2.6 164.73-2.7 164.83-2.9L164.83-2.9Q165.33-4.1 165.98-5.73 166.63-7.35 167.08-8.95ZM163.53 0L163.53 0Q162.58-1 162.08-2.23 161.58-3.45 161.38-4.73 161.18-6 161.28-7.3 161.38-8.6 161.68-9.75L161.68-9.75Q162.13-11.55 162.83-13.35 163.53-15.15 164.03-16.93 164.53-18.7 164.61-20.43 164.68-22.15 163.88-23.8L163.88-23.8Q163.73-24.05 163.68-24.05L163.68-24.05Q163.63-24.05 163.63-23.98 163.63-23.9 163.68-23.85L163.68-23.85Q163.83-22.35 163.48-20.75 163.13-19.15 162.58-17.48 162.03-15.8 161.36-14.03 160.68-12.25 160.23-10.4L160.23-10.4Q159.88-9.05 159.76-7.65 159.63-6.25 159.93-4.88 160.23-3.5 161.03-2.25 161.83-1 163.33 0.05L163.33 0.05Q163.43 0.15 163.58 0.18 163.73 0.2 163.53 0ZM163.93-1.9L163.93-1.9Q163.78-2.3 163.61-2.9 163.43-3.5 163.33-4.05L163.33-4.05Q163.23-4.25 163.08-4.8 162.93-5.35 162.83-5.35L162.83-5.35Q162.63-5.35 162.56-5 162.48-4.65 162.48-4.13 162.48-3.6 162.56-3.03 162.63-2.45 162.78-2.05L162.78-2.05Q163.08-1.05 163.51-0.65 163.93-0.25 164.63 0L164.63 0Q164.93 0.15 165.08 0.15L165.08 0.15Q165.13 0.15 165.11 0.08 165.08 0 165.03 0L165.03 0Q164.68-0.4 164.41-0.85 164.13-1.3 163.93-1.9ZM167.83-27.75L167.83-27.75Q167.58-27.75 167.06-27.83 166.53-27.9 166.53-28.3L166.53-28.3Q166.53-28.45 166.98-28.68 167.43-28.9 167.98-29.33 168.53-29.75 168.98-30.43 169.43-31.1 169.43-32.15L169.43-32.15Q169.43-33.45 168.93-34.1L168.93-34.1Q168.83-34.25 168.68-34.43 168.53-34.6 168.58-34.65L168.58-34.65Q168.68-34.65 168.81-34.58 168.93-34.5 168.98-34.45L168.98-34.45Q169.98-33.9 170.51-33.02 171.03-32.15 171.03-31.35L171.03-31.35Q171.03-29.75 170.28-28.75 169.53-27.75 167.83-27.75ZM165.98-29.75L165.98-29.75Q165.38-29.5 165.38-30.05L165.38-30.05Q165.38-30.45 165.68-30.83 165.98-31.2 166.26-31.65 166.53-32.1 166.63-32.68 166.73-33.25 166.33-34.1L166.33-34.1Q166.23-34.35 165.98-34.65 165.73-34.95 165.83-35L165.83-35Q165.93-35.05 166.26-34.93 166.58-34.8 166.68-34.75L166.68-34.75Q167.53-34.35 167.96-33.55 168.38-32.75 168.38-32.15L168.38-32.15Q168.38-31.2 167.61-30.58 166.83-29.95 165.98-29.75ZM164.53-32.45L164.53-32.45Q164.53-32.7 164.68-33.02 164.83-33.35 165.18-33.35L165.18-33.35Q165.43-33.35 165.58-33.02 165.73-32.7 165.73-32.45L165.73-32.45Q165.73-32.25 165.58-31.93 165.43-31.6 165.18-31.6L165.18-31.6Q164.83-31.6 164.68-31.9 164.53-32.2 164.53-32.45ZM183.93-22.2L183.93-22.2Q183.98-22.15 183.98-21.98 183.98-21.8 183.93-21.7L183.93-21.7Q183.48-20.25 182.38-19.65 181.28-19.05 180.43-19.05L180.43-19.05Q179.38-19.05 178.28-19.23 177.18-19.4 176.18-20.15L176.18-20.15Q176.08-20.25 175.93-20.35 175.78-20.45 175.78-20.55L175.78-20.55Q175.78-20.7 175.93-20.78 176.08-20.85 176.18-20.9L176.18-20.9Q176.63-21 177.35-21.08 178.08-21.15 178.78-21.05L178.78-21.05Q179.28-20.95 179.98-20.95 180.68-20.95 181.4-21.05 182.13-21.15 182.73-21.38 183.33-21.6 183.63-22.05L183.63-22.05Q183.78-22.25 183.93-22.2ZM184.28-23.75L184.28-23.75 184.13-23.5Q183.28-22.4 182.33-22.08 181.38-21.75 180.33-21.8 179.28-21.85 178.2-22.08 177.13-22.3 176.08-22.35L176.08-22.35Q174.68-22.4 173.28-21.5 171.88-20.6 170.88-18.35L170.88-18.35Q170.73-18.05 170.68-18.23 170.63-18.4 170.68-18.55L170.68-18.55Q171.08-20.05 171.63-21.05 172.18-22.05 172.8-22.68 173.43-23.3 174.13-23.6 174.83-23.9 175.58-24L175.58-24Q176.43-26.85 176.9-29.58 177.38-32.3 176.98-34.75L176.98-34.75Q176.98-34.95 176.98-34.95L176.98-34.95Q177.08-35 177.18-34.9 177.28-34.8 177.28-34.75L177.28-34.75Q178.38-32.35 178.18-29.63 177.98-26.9 177.18-23.9L177.18-23.9Q177.43-23.85 177.58-23.85 177.73-23.85 177.93-23.85L177.93-23.85Q178.18-25.15 178.4-26.63 178.63-28.1 178.75-29.45 178.88-30.8 178.83-31.9 178.78-33 178.48-33.55L178.48-33.55Q178.33-34 178.48-34L178.48-34Q178.58-34 178.63-33.9 178.68-33.8 178.78-33.7L178.78-33.7Q179.48-33 179.88-31.8 180.28-30.6 180.43-29.25 180.58-27.9 180.53-26.58 180.48-25.25 180.23-24.25L180.23-24.25 180.03-23.45Q180.18-23.35 180.33-23.35 180.48-23.35 180.63-23.3L180.63-23.3Q180.93-24.8 181.15-26.3 181.38-27.8 181.33-29.45L181.33-29.45Q181.33-29.8 181.38-29.8L181.38-29.8Q181.48-29.8 181.53-29.65 181.58-29.5 181.63-29.4L181.63-29.4Q182.23-28.3 182.2-26.65 182.18-25 181.93-23.15L181.93-23.15Q183.03-23.15 184.03-23.75L184.03-23.75Q184.28-23.9 184.28-23.75ZM173.93-20.35L173.93-20.35Q173.93-20.1 173.65-19.85 173.38-19.6 173.23-19.5L173.23-19.5Q172.98-19.3 172.65-19.03 172.33-18.75 172.08-18.45L172.08-18.45Q171.83-18.05 171.6-17.75 171.38-17.45 171.23-16.9L171.23-16.9Q171.18-16.8 171.1-16.73 171.03-16.65 170.98-16.7L170.98-16.7Q170.83-16.85 170.98-17.35L170.98-17.35Q171.18-18.1 171.38-18.57 171.58-19.05 172.13-19.6L172.13-19.6Q172.33-19.8 172.63-20 172.93-20.2 173.23-20.35 173.53-20.5 173.73-20.5 173.93-20.5 173.93-20.35ZM177.83-0.25L177.83-0.25Q178.08-0.35 178.03-0.2 177.98-0.05 177.88 0L177.88 0Q176.98 0.3 175.98-0.1 174.98-0.5 174.13-1.35 173.28-2.2 172.68-3.33 172.08-4.45 171.93-5.55L171.93-5.55Q171.68-7.9 171.88-10.1 172.08-12.3 172.63-14.45L172.63-14.45 173.48-17.6Q173.18-17.6 172.88-17.75L172.88-17.75Q172.53-17.85 172.53-18L172.53-18Q172.53-18.1 172.88-18.3L172.88-18.3Q174.28-19 175.7-18.9 177.13-18.8 178.58-18.55L178.58-18.55Q179.48-18.4 180.4-18.32 181.33-18.25 182.43-18.7L182.43-18.7Q182.53-18.8 182.63-18.75L182.63-18.75Q182.73-18.65 182.58-18.4L182.58-18.4Q182.28-17.75 181.73-17.45 181.18-17.15 180.58-17L180.58-17Q180.18-15.7 179.88-14.68 179.58-13.65 179.38-12.95L179.38-12.95Q178.83-10.55 178.1-8.08 177.38-5.6 177.13-3.9L177.13-3.9Q177.03-3.35 176.93-3.3L176.93-3.3Q176.83-3.25 176.73-3.5 176.63-3.75 176.58-3.9L176.58-3.9Q176.38-5.35 176.5-6.93 176.63-8.5 176.98-10.15 177.33-11.8 177.78-13.48 178.23-15.15 178.73-16.85L178.73-16.85Q178.48-16.85 178.23-16.85 177.98-16.85 177.73-16.9L177.73-16.9Q177.33-15.85 176.9-14.83 176.48-13.8 176.08-12.9L176.08-12.9Q176.03-12.8 175.85-12.43 175.68-12.05 175.58-12.05L175.58-12.05Q175.38-12.1 175.43-12.53 175.48-12.95 175.48-13.1L175.48-13.1Q175.58-13.85 175.8-14.85 176.03-15.85 176.23-17L176.23-17Q175.98-17.05 175.68-17.07 175.38-17.1 175.08-17.2L175.08-17.2Q174.78-16.2 174.5-15.25 174.23-14.3 173.98-13.35L173.98-13.35Q173.58-11.6 173.38-9.63 173.18-7.65 173.38-5.55L173.38-5.55Q173.48-4.6 173.9-3.6 174.33-2.6 174.93-1.8 175.53-1 176.3-0.55 177.08-0.1 177.83-0.25ZM178.28-1.35L178.28-1.35Q178.53-1.55 178.58-1.38 178.63-1.2 178.38-1.05L178.38-1.05Q178.18-0.9 177.85-0.83 177.53-0.75 177.13-0.8 176.73-0.85 176.28-1.1 175.83-1.35 175.43-1.9L175.43-1.9Q175.08-2.35 174.85-3.2 174.63-4.05 174.53-4.88 174.43-5.7 174.48-6.3 174.53-6.9 174.73-6.9L174.73-6.9Q174.98-6.9 175.1-6.2 175.23-5.5 175.33-5.05L175.33-5.05Q175.53-4.25 175.88-3.4 176.23-2.55 176.63-2.05L176.63-2.05Q177.13-1.4 177.53-1.28 177.93-1.15 178.28-1.35Z" fill="#fe5e02" data-fill-palette-color="primary"></path></g></svg></g></svg></g></svg></g></svg></g><g transform="matrix(1,0,0,1,445.82670208718645,0.22365172959991497)"><svg viewBox="0 0 90.82119331583854 89.46069183996728" height="89.46069183996728" width="90.82119331583854"><g><svg xmlns="http://www.w3.org/2000/svg" xmlns:xlink="http://www.w3.org/1999/xlink" version="1.1" x="0" y="0" viewBox="0 1.498 100 98.502" enable-background="new 0 0 100 100" xml:space="preserve" height="89.46069183996728" width="90.82119331583854" class="icon-icon-0" data-fill-palette-color="accent" id="icon-0"><path d="M24.948 46.601C24.948 52.93 19.818 58.047 13.515 58.047 7.174 58.047 2.058 52.93 2.058 46.601 2.056 40.286 7.173 35.156 13.515 35.156 19.818 35.156 24.948 40.286 24.948 46.601" fill="#040105" data-fill-palette-color="accent"></path><path d="M75.053 46.601C75.053 52.93 80.184 58.047 86.485 58.047 92.827 58.047 97.958 52.93 97.958 46.601 97.957 40.286 92.826 35.156 86.485 35.156 80.184 35.156 75.053 40.286 75.053 46.601" fill="#040105" data-fill-palette-color="accent"></path><path d="M43.672 85.938C43.412 83.502 44.35 81.25 45.938 79.61 36.25 77.76 32.28 73.035 28.83 68.762 27.149 66.666 25.549 64.674 23.426 63.268 23.361 63.229 23.283 63.229 23.232 63.176 21.421 61.678 19.129 60.729 16.605 60.729H10.419C4.688 60.729 0 65.404 0 71.133V100H27.018V81.342C30.963 84.792 36.538 88.073 45.104 89.506 44.389 88.465 43.828 87.292 43.672 85.938" fill="#040105" data-fill-palette-color="accent"></path><path d="M89.598 60.729H83.399C80.887 60.729 78.583 61.679 76.786 63.177 76.722 63.229 76.641 63.229 76.591 63.267 74.468 64.673 72.866 66.654 71.174 68.763 67.385 73.451 63.088 78.802 51.07 80.13A4.97 4.97 0 0 0 46.695 85.611 4.95 4.95 0 0 0 51.617 90.025C51.8 90.025 51.982 90.01 52.178 89.999 62.36 88.866 68.662 85.246 72.998 81.405V100H100V71.133C100 65.404 95.312 60.729 89.598 60.729" fill="#040105" data-fill-palette-color="accent"></path><path d="M42.729 27.671V16.22C42.729 13.26 45.022 10.859 47.851 10.859H59.054V8.129C59.054 4.467 56.216 1.498 52.718 1.498H23.336C19.838 1.498 17 4.467 17 8.129V22.298C17 25.96 19.838 28.931 23.336 28.931H28.184V36.76C28.184 37.192 28.778 37.497 29.085 37.135 31.397 34.401 33.704 31.667 36.016 28.932H42.878A5.5 5.5 0 0 1 42.729 27.671" fill="#040105" data-fill-palette-color="accent"></path><path d="M45.637 18.108V30.891C45.637 33.561 47.705 35.726 50.257 35.726H62.433L67.485 41.706C67.711 41.972 68.142 41.749 68.142 41.435V35.727H75.767C78.318 35.727 80.386 33.562 80.386 30.892V18.108C80.386 15.439 78.318 13.273 75.767 13.273H50.257C47.705 13.272 45.637 15.438 45.637 18.108" fill="#040105" data-fill-palette-color="accent"></path></svg></g></svg></g></svg></g><defs></defs></svg><rect width="395.52" height="66.26395184876398" fill="none" stroke="none" visibility="hidden"></rect></g></svg></g></svg>